<?xml version="1.0" encoding="UTF-8"?>
<svg id="Layer_1" data-name="Layer 1" xmlns="http://www.w3.org/2000/svg" viewBox="0 0 166.99 413.89">
  <defs>
    <style>
      .cls-1 {
        fill: #f7931e;
        stroke-width: 0px;
      }
    </style>
  </defs>
  <path class="cls-1" d="m118.51,68.77l2.78-.29,3.81,1.17,1.46-.44,1.46.88,2.93-.15,6.3,2.2,5.86,4.25,5.42,3.08,4.98,5.27,2.34,4.54,1.03.59,1.32,3.37,1.76,9.67-.15,4.98-.59.59-.29,5.13-3.08,10.11-1.61,2.78-.88.15-.44,1.76-4.54,4.83-2.2,1.17-.59,1.46-7.76,4.69-3.37,1.03-6.3.88-1.61-.73-3.22.15-6.15-2.34-5.71-3.81-4.1-6.59-1.61-5.42,1.03-7.91.88-.44v-.88l3.08-5.71,1.32-1.76,7.32-4.1,3.08.29,7.18,5.42-.29,1.61h1.17l.88,2.05,1.76.88v.73l-.88.29-1.17-.88-7.32,2.2-4.54,4.98-.44,3.66-1.17,1.46.59,4.54,1.76,4.83,4.25,3.08,2.78.44,4.83-.59,9.96-5.42,7.91-9.23,1.46-3.08,1.61-3.96,2.2-10.11-.73-1.76-.15-5.27-.73-1.32.73-1.46-1.61-2.49-.73-.73-2.05-5.42-5.27-4.69-7.76-4.1-9.08-1.76-8.2.15-8.06,2.05-9.08,4.1-5.27,3.81-.59-.59-5.42,7.18-3.08,3.66-1.03,2.34-1.46.59.29,1.17-3.08,3.37.88,2.78-1.76,1.9-.15,3.81-1.17,7.76.29,4.1,2.2,8.94,1.03,2.78,1.76,1.32,1.17,3.96,6.59,8.2,11.28,8.64,7.32,4.69,3.66,2.78,7.18,4.25,10.11,7.18,6.15,6.01.29,1.76,2.49,1.03-.15,1.76,1.32.59,1.46,2.64,1.46.29,2.2,3.08.88,3.08,2.34,2.2,2.49,9.08-.88.59,1.32,1.32-.29,1.32,1.32,2.78-.44,1.32.73.73v8.5l-.73.88.29,2.49-1.17,1.32.59,1.76-1.61,2.34.59,1.17-.88,1.46v3.52l-.73.44-3.66,8.2-4.39,5.27v1.46l-7.32,7.18-6.59,6.01-8.5,5.13-8.35,3.96-3.22,1.76h-1.9l-6.74,2.49-10.25,2.49-10.84,1.76-4.98-.59h-2.78l-11.13-.73-4.39-.59-11.13-3.66-1.76-.15-8.79-4.54-6.74-4.54-4.25-4.25-9.23-12.16-.29-1.9-2.49-5.86-2.34-10.99.15-8.64v-1.17l1.03-2.34.44-5.71,2.64-8.79,3.96-8.5,8.35-9.96,1.46.15.59-1.76,7.18-5.42,10.84-4.98,9.23-2.2,13.48-1.46,6.01.73,10.55,2.2.44.59.88.15,8.94,4.69,1.61.29.73,2.05,2.05-.29,2.34,4.1.88.73,2.49,1.46,4.69,8.5.15.44,1.32.88,1.32,6.3-1.03.88,1.76,6.74-1.76,1.46,1.32.73-1.61,4.39.15,1.03-1.32,1.9.88.88-1.32,1.03-1.9,3.52-4.83,6.3-.59,1.17h-1.76l-8.06,5.57-5.71,1.46-11.43.88-5.13-1.9-4.25-3.22-5.13-5.71-2.49-8.79v-1.17l1.46-4.39,3.52-5.42,2.64-1.61,6.15-2.2,1.03,1.32h1.46l2.2,2.2,1.17,1.9.88,1.9-1.17,1.03-.44,2.05-3.08,5.27.29.15-4.25-.15-3.66-1.17-.88,1.32-.59,3.37,1.17,3.81,4.25,5.27,5.71,1.17,6.01.15,2.34-1.32h1.03l6.45-5.71v-.29l1.9-2.93-.15-.88,4.39-9.81.88-12.3-2.34-7.91-2.93-6.15-4.69-5.27-7.03-5.13-6.15-1.9-7.62-1.61-8.79.59-2.34.88-11.28,4.25-5.86,4.69-1.17.59-8.2,7.76-4.69,7.18-2.2,3.66-1.46,5.71-1.32,8.2-.29,3.96-.15,4.98,1.61,4.69,1.17,7.32,3.52,7.76,3.66,7.91.59.59,1.32.44,3.08,4.39,4.1,3.66,9.96,6.3,5.71,2.34,9.38,1.32,10.11.29,1.46-.59,2.05.88,1.61-1.03,6.01-1.03.73-.29,2.93-.44,8.35-2.93,7.03-4.25h.44l5.71-3.66,5.71-4.83,2.78-2.64,6.15-8.06,3.96-7.18,1.46-5.57,2.34-9.08-.29-4.69,1.76-3.37-.88-2.2.44-3.66-.59-1.17-1.17-6.3-2.34-8.35-1.46-4.54-4.98-8.64-.44-.59-4.83-4.39-1.17-2.2-1.17-.44-3.08-3.08-5.27-4.69-1.76-1.46-18.46-13.18-5.27-3.81-8.79-8.5-4.39-6.59-5.42-13.92-.59-11.87-.29-2.34,1.76-3.08-.29-.88,2.93-8.5,3.52-5.57,7.91-8.79,8.64-5.57,10.99-6.3,4.39-1.32,6.01-.29,5.57-1.17,2.93.29Z"/>
</svg>