<?xml version="1.0" encoding="UTF-8"?>
<svg id="Layer_1" data-name="Layer 1" xmlns="http://www.w3.org/2000/svg" viewBox="0 0 1387.79 413.89">
  <defs>
    <style>
      .cls-1 {
        fill: #f7931e;
        stroke-width: 0px;
      }
    </style>
  </defs>
  <path class="cls-1" d="m118.51,68.77l2.78-.29,3.81,1.17,1.46-.44,1.46.88,2.93-.15,6.3,2.2,5.86,4.25,5.42,3.08,4.98,5.27,2.34,4.54,1.03.59,1.32,3.37,1.76,9.67-.15,4.98-.59.59-.29,5.13-3.08,10.11-1.61,2.78-.88.15-.44,1.76-4.54,4.83-2.2,1.17-.59,1.46-7.76,4.69-3.37,1.03-6.3.88-1.61-.73-3.22.15-6.15-2.34-5.71-3.81-4.1-6.59-1.61-5.42,1.03-7.91.88-.44v-.88l3.08-5.71,1.32-1.76,7.32-4.1,3.08.29,7.18,5.42-.29,1.61h1.17l.88,2.05,1.76.88v.73l-.88.29-1.17-.88-7.32,2.2-4.54,4.98-.44,3.66-1.17,1.46.59,4.54,1.76,4.83,4.25,3.08,2.78.44,4.83-.59,9.96-5.42,7.91-9.23,1.46-3.08,1.61-3.96,2.2-10.11-.73-1.76-.15-5.27-.73-1.32.73-1.46-1.61-2.49-.73-.73-2.05-5.42-5.27-4.69-7.76-4.1-9.08-1.76-8.2.15-8.06,2.05-9.08,4.1-5.27,3.81-.59-.59-5.42,7.18-3.08,3.66-1.03,2.34-1.46.59.29,1.17-3.08,3.37.88,2.78-1.76,1.9-.15,3.81-1.17,7.76.29,4.1,2.2,8.94,1.03,2.78,1.76,1.32,1.17,3.96,6.59,8.2,11.28,8.64,7.32,4.69,3.66,2.78,7.18,4.25,10.11,7.18,6.15,6.01.29,1.76,2.49,1.03-.15,1.76,1.32.59,1.46,2.64,1.46.29,2.2,3.08.88,3.08,2.34,2.2,2.49,9.08-.88.59,1.32,1.32-.29,1.32,1.32,2.78-.44,1.32.73.73v8.5l-.73.88.29,2.49-1.17,1.32.59,1.76-1.61,2.34.59,1.17-.88,1.46v3.52l-.73.44-3.66,8.2-4.39,5.27v1.46l-7.32,7.18-6.59,6.01-8.5,5.13-8.35,3.96-3.22,1.76h-1.9l-6.74,2.49-10.25,2.49-10.84,1.76-4.98-.59h-2.78l-11.13-.73-4.39-.59-11.13-3.66-1.76-.15-8.79-4.54-6.74-4.54-4.25-4.25-9.23-12.16-.29-1.9-2.49-5.86-2.34-10.99.15-8.64v-1.17l1.03-2.34.44-5.71,2.64-8.79,3.96-8.5,8.35-9.96,1.46.15.59-1.76,7.18-5.42,10.84-4.98,9.23-2.2,13.48-1.46,6.01.73,10.55,2.2.44.59.88.15,8.94,4.69,1.61.29.73,2.05,2.05-.29,2.34,4.1.88.73,2.49,1.46,4.69,8.5.15.44,1.32.88,1.32,6.3-1.03.88,1.76,6.74-1.76,1.46,1.32.73-1.61,4.39.15,1.03-1.32,1.9.88.88-1.32,1.03-1.9,3.52-4.83,6.3-.59,1.17h-1.76l-8.06,5.57-5.71,1.46-11.43.88-5.13-1.9-4.25-3.22-5.13-5.71-2.49-8.79v-1.17l1.46-4.39,3.52-5.42,2.64-1.61,6.15-2.2,1.03,1.32h1.46l2.2,2.2,1.17,1.9.88,1.9-1.17,1.03-.44,2.05-3.08,5.27.29.15-4.25-.15-3.66-1.17-.88,1.32-.59,3.37,1.17,3.81,4.25,5.27,5.71,1.17,6.01.15,2.34-1.32h1.03l6.45-5.71v-.29l1.9-2.93-.15-.88,4.39-9.81.88-12.3-2.34-7.91-2.93-6.15-4.69-5.27-7.03-5.13-6.15-1.9-7.62-1.61-8.79.59-2.34.88-11.28,4.25-5.86,4.69-1.17.59-8.2,7.76-4.69,7.18-2.2,3.66-1.46,5.71-1.32,8.2-.29,3.96-.15,4.98,1.61,4.69,1.17,7.32,3.52,7.76,3.66,7.91.59.59,1.32.44,3.08,4.39,4.1,3.66,9.96,6.3,5.71,2.34,9.38,1.32,10.11.29,1.46-.59,2.05.88,1.61-1.03,6.01-1.03.73-.29,2.93-.44,8.35-2.93,7.03-4.25h.44l5.71-3.66,5.71-4.83,2.78-2.64,6.15-8.06,3.96-7.18,1.46-5.57,2.34-9.08-.29-4.69,1.76-3.37-.88-2.2.44-3.66-.59-1.17-1.17-6.3-2.34-8.35-1.46-4.54-4.98-8.64-.44-.59-4.83-4.39-1.17-2.2-1.17-.44-3.08-3.08-5.27-4.69-1.76-1.46-18.46-13.18-5.27-3.81-8.79-8.5-4.39-6.59-5.42-13.92-.59-11.87-.29-2.34,1.76-3.08-.29-.88,2.93-8.5,3.52-5.57,7.91-8.79,8.64-5.57,10.99-6.3,4.39-1.32,6.01-.29,5.57-1.17,2.93.29Z"/>
  <path class="cls-1" d="m244.34,176.88l4.54.29.44.88,1.17-.29,3.08,2.05v.59l1.17,1.03-1.76,3.08v1.03h-.59l-.29,1.32-1.03.88.15,2.34-1.32,1.03-.73,3.08-.59,2.05h-.73l-.73,3.81-1.17.88-.73,2.64-.88.15.15,1.17-1.46,2.64-1.9,6.15-2.05,2.93.15,1.9-2.93,4.98-1.03,3.81-1.03,2.2-3.22,9.81-.59,1.9h-.73l-.44.44v3.96l-1.46,2.49v1.76l-1.03,1.9v1.9l-1.9,1.9-.59,2.05-.29.44v1.17l-.59.59.29,1.32-.59.73.29,1.17-1.17,2.34h-.59l-2.05,4.83-.88,5.42-2.93,5.57-1.61,5.86-1.9,4.1-.88,3.08-4.1,7.03-1.17,4.39h-1.17l.73,1.17-1.61,2.78-.59,3.08-1.46,4.83-.88,1.17-2.49,7.47-1.76,2.49.59,1.9,2.05-1.76,4.69-6.15,3.52-4.83,3.37-2.93,3.96-3.52v-.73l4.39-3.81v-.44l4.54-3.81,8.79-6.88,2.05-1.46,2.05-2.49,1.03-.29,7.18-6.15,1.46-.44,1.61-2.05,4.83-2.64h1.17l1.32-1.46h1.17l1.46-1.61,1.9.15.73-1.46.88-.15,2.64-2.49,3.37-.73.59-.88,1.17.29,1.32-2.34,1.32.44,1.32-1.46,2.64-1.03.59.44h1.03l.29-1.03,7.18-2.78,2.64-.44,10.69-1.76,3.22-.29,7.62.73,1.9.59,1.17.88h.88l.29,1.17,4.83.15,1.17,1.17,2.05.59v1.03l3.66,1.9-.15,1.61,1.03.44.15-.44,3.22,3.96v2.64l.88.88.44.88.15,1.61-1.03,6.3-3.08,8.06v.44l-4.39,5.57-1.32,1.46v.29l-1.9.73v.44l-1.46.73-.88,1.9-1.32.88-3.96,4.1-2.49,1.32h-.88l-1.03.73-.59,1.03h-.88l-1.9,2.05-1.61.15-4.98,2.34-6.3,2.2-3.08.44-9.23-.73-2.64-1.32-6.01-5.27-1.17-3.66.29-7.18.59-.73.88-.15,2.05-4.69,2.78-3.22,6.45-3.08.44.29,1.61-.44.15.59h.73l.29-1.03,5.86,4.83-.15,6.45-1.76.73-2.2,1.76-.73.44-1.03.29-1.46-.29-1.03-.59-.44-.59-.59-3.96.73-1.03-.15-1.17-3.22,1.17-3.52,3.81-1.32,3.37-.29,5.57.59.88,5.13,4.54,4.54.29,3.22.29,5.71-1.61.29.29,9.52-4.54,8.79-6.88,8.64-10.84,2.64-6.45,1.17-7.18-.88-1.17v-1.9l-1.76-2.93-1.61-2.49-6.74-4.39-7.18-2.05-12.74.44-.44.59-2.2-.15-.59,1.32-1.46-.15-3.52,1.03-.73.44v.44l-3.52,1.17-.59,1.03-1.03-.59-6.88,2.78-.73,1.32-3.66,1.17-6.15,3.81-5.27,2.64-3.96,2.93h-1.61l-.73,1.76-.88.44-1.03,1.32-1.03-.29-1.9,3.08-3.81,2.05-2.34,2.34-10.25,7.62-1.76,1.32-11.87,11.57-3.52,3.08-.44,1.46-3.81,3.52-1.9,2.78-2.34,2.49-.44,1.32-1.32.73-.29,1.03-5.42,6.15-.88.73-.29,1.32-3.81,5.42-.88.88-.59.73v.29l.29.73-2.49,3.96h-1.32l.15,1.32-1.46,2.78-1.9,2.49-.88,3.37-1.61,5.13-.59.59-5.86-3.08-2.05-1.61-.59-.73.29-3.66,1.17-.73-.29-.59,1.46-1.76,1.17-2.49,1.03-3.66.73-1.03-.44-.59,2.2-4.25v-1.32l1.46-1.61.44-2.05,1.76-1.32,1.46-6.88,1.46-2.05.29-1.03.59-1.76v-1.32l1.17-1.03v-1.46h-.44l-.29-.44,1.9-1.32-.15-1.46,1.46-1.03-.29-.88.73-1.03v-1.61l1.46-2.93,1.03-3.22.44-3.37,2.05-1.9v-2.64l2.93-6.88,1.32-4.39,2.2-4.83-.15-1.61,1.46-3.22.29-.73h.59l.29-3.81.88-1.32-.15-.73.73-.15.59-2.64.73-1.17,1.46-4.98,2.2-3.81.59-2.93,3.52-9.67,1.03-.44.88-4.39,1.9-3.52-.29-1.61,2.64-6.45,2.64-7.47,1.32-2.49.88-3.81-.29-.29-3.81,6.01-1.76,1.03v.88l-1.76,1.61-1.03,1.76-5.42,6.3-7.03,5.13-7.32,4.1-.44.44-9.08,1.46-6.01-3.81-2.64-2.34v-.59l-2.49-3.37-1.03-5.27-.73-.59.15-1.76-.44-8.2,1.32-7.32.15-1.17,3.22-7.03,1.76-4.39,1.46-.73.44-1.9,1.76-2.64,3.52-2.34.88-2.2.29-.15,2.2-1.9.73-1.76,4.98-2.34,3.37-3.52,2.78-.15v-1.03h1.76l.29-1.32,4.83-.29v-.88h.73l1.9,1.03,1.76-1.03,1.76.73,2.93.73,2.49,1.46,5.27,3.52,3.37,3.52.88,2.34-.88,5.13h-.29l-.59,1.32-2.2-.73.15-3.96-.88-1.46-1.9-1.46-1.32-.44h-8.5l-3.81,1.9-3.81,2.49-2.05-.15-1.32,1.46h-.44l-1.76,2.34-2.05,1.17v.88l-2.64,3.37-4.98,6.3-1.61,3.37h-.29l-.88,2.34-.88.44v1.17l-1.32,1.03.15,3.37-.88.29-.44,3.52-.73,7.91-.44.88,1.46,4.98,3.37,3.81,6.88-1.03,1.61-1.17,1.76-.44,8.06-5.71v-.29l9.52-10.99.29-1.32h.44l5.27-6.88,5.13-7.91,3.81-6.01,1.17-1.32.88-1.9v-.88l3.22-7.18,2.2-5.13,1.46-3.52,2.2-1.9-.15-.73,1.32-1.17Z"/>
  <path class="cls-1" d="m259.42,221.26l1.76-3.52,7.91-19.19,1.03-2.93,1.46-1.32-.15-1.03,1.32-2.34,2.93-1.03-.15-.44.73-.29,2.05.44,2.64,1.61.73-.15,4.69,3.66-.59,4.1-1.17.88-.88,1.61.59.44-3.08,8.06-1.76,3.37-.15,1.46-.44.15-.59-.15.29,1.03h-.29l-.29,1.76-1.03.88.15,2.34-2.78,1.9v2.64l-.73,3.37-.59.44-.73,2.78-1.9,1.46-.73,5.27-1.03,1.32-.15,3.81.44,2.05.88.73,4.39-3.08,4.54-4.1,1.17-.44,3.37-3.08v-1.03l6.01-5.57.88-2.2,2.49-1.9,1.17-2.49,2.2-1.32.44-1.9,1.9-1.61.44-2.49,1.32-.15.59-2.34.88-1.61-.29-.59,5.57-9.23.88-2.49,1.9-1.9,3.22-8.35,1.17-3.37,1.03-.73.44-1.32,3.96-2.2.59.29.15-.29,1.76-.29,3.52,1.03,3.22,2.2.59,1.76-2.78,5.71.59,1.32-1.17,1.03-3.08,8.5-4.39,8.2-.15.73-1.17,1.32-.73,2.2-.73.44.29,1.17-.44.15.29,1.9-1.03,1.17v1.61l-1.03,1.03.59,2.05-1.61,2.49-.29,3.22.29.29.59,4.83,3.08,2.2,4.39-1.17,6.3-4.1.15.59-4.39,6.3-2.93,1.76-.44.15-2.05,1.76-7.62-.73h-.44l-1.03-.88h-1.17l-.59-.88-1.32-.29-1.03-1.76-1.9-1.32-1.61-2.93-1.32-2.05.15-7.76-.59-.29-.88,1.32-1.17.73-1.76,2.78-1.17.88-2.78,4.54-2.34,1.9-.59,1.9-3.22,1.46-2.2,2.93-4.25,4.1.15.73-1.61,1.03-.29-.15-.73,1.76-6.59,2.34-.88.29-2.34-.15-2.49-1.17-1.17-1.17-2.93-1.61-2.78-8.06.29-5.86v-4.69l1.03-1.32.44-4.39,1.17-1.03-.44-1.46Z"/>
  <path class="cls-1" d="m380.57,181.42l3.96.44,9.08,6.15.73,1.46,3.66,4.1-.73,6.01-3.66,5.42-2.64,2.05-10.11,7.62-.88.29-1.17-.29-.88,1.03-11.13,4.25-5.27.73-.15.88-3.22-.59-3.66.88-1.17,10.69-.44.29,3.66,8.35,6.15,3.66,4.39.29,4.1-.44,6.88-1.9,8.2-4.83,1.03-.73,7.18-6.01-3.08,6.59-6.15,6.15-8.94,4.25-8.2,2.05-2.64-.88-2.64.59-1.46-1.17-1.32.15-6.88-3.81-6.15-6.3-1.9-3.66-1.76-5.42-.29-12.89-5.27-6.3,1.76-.59,4.1,2.93,1.46-2.64,5.27-10.55,6.59-7.32,6.15-4.98,9.67-5.13,4.25-.73,3.52-.15Zm5.27,6.01l-4.83,1.32-6.74,3.66-5.13,4.69-7.18,7.91-6.15,12.45.29.73.73.59,7.18-1.76,10.25-5.13,10.69-8.94,4.25-6.45,1.17-3.66-.59-4.1-3.96-1.32Z"/>
  <path class="cls-1" d="m448.83,181.42l3.96.44,9.08,6.15.73,1.46,3.66,4.1-.73,6.01-3.66,5.42-2.64,2.05-10.11,7.62-.88.29-1.17-.29-.88,1.03-11.13,4.25-5.27.73-.15.88-3.22-.59-3.66.88-1.17,10.69-.44.29,3.66,8.35,6.15,3.66,4.39.29,4.1-.44,6.88-1.9,8.2-4.83,1.03-.73,7.18-6.01-3.08,6.59-6.15,6.15-8.94,4.25-8.2,2.05-2.64-.88-2.64.59-1.46-1.17-1.32.15-6.88-3.81-6.15-6.3-1.9-3.66-1.76-5.42-.29-12.89-5.27-6.3,1.76-.59,4.1,2.93,1.46-2.64,5.27-10.55,6.59-7.32,6.15-4.98,9.67-5.13,4.25-.73,3.52-.15Zm5.27,6.01l-4.83,1.32-6.74,3.66-5.13,4.69-7.18,7.91-6.15,12.45.29.73.73.59,7.18-1.76,10.25-5.13,10.69-8.94,4.25-6.45,1.17-3.66-.59-4.1-3.96-1.32Z"/>
  <path class="cls-1" d="m499.95,177.17l19.92,6.59,10.69,1.03,10.11-3.66,4.83,6.59-2.05,3.96-.15,1.17h-.73l-2.34,1.32-.29.88h-.29l-.73,1.03-2.05,1.03-.15-.15-2.64,3.22-2.05.59-.73,1.46-2.2.59-.29.44.15.15v.44l-1.17.29-.73,1.61h-1.17l-.29.44.15.88-3.52,2.93-1.17,1.9h-1.17l-4.25,3.81-1.76.88v.88l-2.49.44-2.05.15.44,1.61-4.54,2.2.29.88-.59.59-1.46.59-.73,2.49-3.37.73-2.78,3.52-4.98,2.78-1.76.44-1.9,1.17v.59l5.57,1.17,4.69.88,5.13,2.2,6.45,3.22,8.06.44h.88l5.42-1.03,3.96-2.93,4.54-7.47-1.46-6.3-4.25-2.93-1.17-.44v-.88l3.52.59,1.76,1.32h2.05l3.96,2.93h.59l2.2,3.52.59,7.18-.44,1.17-3.66,6.01-5.13,3.96-7.03,1.9-1.03-.29-.29.29-7.76.15-9.08-3.22-5.86-3.08-1.76-1.76-3.81-1.46-5.71-1.03-1.17.15-7.76,2.64-1.9.44-.88.59-2.34-.88-1.46-1.9-2.2-1.32-1.76-2.64.29-.29,5.42-4.54.29-.88,2.05-1.03,6.74-6.15,2.05-.88v-1.17l2.05-.73.29.29.59-.59.15-1.03,4.69-2.64.73-2.05h1.46v-.59l5.57-3.81-.15-1.17,3.96-3.37,6.45-4.39.15-.73h.59l.44-1.17,3.96-2.05,1.32-2.05,4.54-3.66,1.9-1.17.44-1.17,1.32-.29-1.03-.73-2.64.15-10.55-2.64-10.99-3.81-7.91.29-2.05.44-2.78,2.05-2.2,2.93-.29,3.22,1.9,2.64.59,1.03,2.49.44,2.78-.29,2.05-4.39-1.32-1.17-.44-.88,5.27-2.2,1.17.59,1.46,1.76.73,3.22-1.17,4.25-1.32,1.61-2.2.73-6.15,1.61-1.61-.88-3.66-1.03-1.61-2.05-2.78-2.34-.88-3.08.29-1.46-1.03-2.34,1.32-3.08.88-2.34,2.93-1.61.44-1.32h.29l1.76-1.17,5.86-.73,5.71.29Z"/>
  <path class="cls-1" d="m614.65,172.92l5.27-.88,1.76.73,2.78-.44,3.52,1.17-.59,5.27-2.2,6.01.15,1.61-2.05,3.22.73,1.32-1.17.44.59,1.9-2.34,2.49,1.03.88-.88,1.61-.88,3.52v.59l-2.49,6.88-.59.59.15,2.34-1.17,4.25-1.46,1.32.29,2.64-1.9,6.59-.88.59.15,2.34-2.05,6.01-1.17,5.27-5.27,16.7-1.03,2.64-2.34,5.13-2.05,6.59-1.32.29.44,1.46-3.81,8.06-1.46,3.81-3.37,5.71-2.78,4.69-5.13,7.62-9.67,10.99-5.71,4.39-.73.15-.44,1.17-3.22,1.46-.15.88-3.66-.15-.88,1.61-2.2.29-1.17-1.17-.59,1.46-1.32.15-1.17-.73-2.64,1.03-5.13-1.03-4.25-3.37v-1.32l1.9.44,2.64,1.61,7.32-.59,6.15-2.05,9.08-7.03,2.34-2.78h1.17l.59-1.76,3.52-3.81-.15-1.17,5.71-8.06,5.13-11.13,3.37-8.64,3.66-11.13,2.2-4.39,1.61-7.91,1.32-6.01,1.03-2.34,1.03-3.81.59-.59,1.32-4.54-.29-.88,1.17-2.64-.15-1.03.59-.73-.29-1.03,1.46-3.52,1.17-7.62,1.17-.88-.29-2.34,1.17-.73.44-4.25.88-1.9-.15-1.03-1.03.88-.15,1.76-2.05,3.52-.15-.59-4.25,7.32-1.9,1.61v1.32l-4.1,6.15-1.32.15.44,1.17-5.13,7.32-5.57,6.3.73-.29-6.3,4.83-4.69.88-1.03.59-4.54-1.03-2.93-1.61-3.66-4.1-.88-4.54-.15-4.83.44-.15.59-2.93-.29-3.08.73-4.39,2.78-12.16,1.32-4.69-.44-1.9.73-.88,1.9-8.35-.73-.44v-.88l1.32-1.61-.44-2.05,1.9-1.32-.15-1.03,2.64-6.74,6.59,1.03,6.01,3.66.73,3.08-4.69,12.6.15,1.76-1.17,3.22-.88.15-1.32,7.18-.88,1.03-1.76,4.69.44.88-.73,1.03-.59,3.96-.59,2.34-1.32,6.01-.44.73.29,1.17-.59,3.37-.73.29,1.46,4.69,5.71-1.17,3.08-2.78,6.15-8.5v.15l6.3-8.79,2.2-3.22h1.03l.15-1.9,1.9-1.9.29-.88.88-.44,1.03-2.2,7.62-12.45,2.78-7.03,2.34-4.83,2.78-10.11.15-3.52Z"/>
  <path class="cls-1" d="m818.12,86.5l4.54,1.32.29.88-1.17,6.3.88.73,4.1-.29,8.35-2.2,3.37-1.9,1.32-2.93,1.17,1.17-2.05,6.01-4.69,2.64-6.88,1.03-5.13.29-1.32,1.03-3.08,10.99-5.27,19.92-1.76,4.1.15,3.08-1.03,1.32-.73,2.2-1.17.88.15,1.61-1.17.59-1.76,7.76-2.64,6.3-2.2,6.88-2.2,5.57-1.03,1.17-3.22,9.23-.88.73-1.46,5.86-2.93,6.01-1.17,3.08-3.37,7.18-3.96,9.38-1.76,3.66-.73.88-3.08,7.32-2.64,3.22v1.61l-4.1,6.74-1.32.88-.73,3.08-5.13,8.5-.88.59,5.86,3.22,26.51,11.13,10.84,3.08,15.38,1.9,7.47-.73,4.83-1.03,8.06-2.93,7.76-4.98,3.52-3.66,3.37-4.69,4.39-7.62-1.32-1.9,1.17-1.03,1.03-7.03-1.03-2.78-1.03-5.71-2.34-3.22-5.71-5.13-2.2-.88-7.62-2.78-8.06-.44-8.64,3.96-2.2,2.49-.59,1.76,3.52.29,2.78,1.17,2.2,4.54-.44,2.64-4.83,3.81-3.37.59-4.54-1.61-2.34-4.1-.73-4.39,2.05-5.86,3.37-3.52,5.27-4.1,10.84-2.2,6.45,1.46,7.62,1.03,1.46.88,10.4,7.62,4.98,8.5,2.78,7.32.44,8.79-1.17,5.86.59,1.9-2.64,6.01.29,1.03-1.32,2.34-3.52,7.32-4.25,3.22-3.66,3.22-7.62,3.52-1.03.73-2.93.44-1.17,1.61-6.01-.44-5.57,1.46-1.46-.29-1.17.59-8.64-1.32-7.47-.88-3.08-1.32-3.08-1.46-9.96-3.22-10.4-5.57-9.96-4.1-2.93-2.34-1.03.29-3.22-1.76-1.76-1.9h-1.76l-6.3-3.08-6.3,7.18-3.22,2.05-4.1,3.66-4.54,2.64-8.5,2.64-2.05-1.46,9.38-3.52,1.32-1.76,1.9-.29,5.27-5.71,7.47-7.62-11.57-3.96-.59.15-4.54,4.83-13.48,11.28-4.39,2.2-.44.88-1.03.15-5.71,2.93-4.39.29-2.2,1.76h-10.4l-6.01-1.17-3.22-2.64-3.08-7.03.88-4.25,4.25-4.69,7.18-5.71,9.96-4.25,11.57-2.64,13.33.59,5.57,1.03,4.1-6.74,5.13-9.81.88-3.22,2.64-5.42,8.06-21.68,6.3-20.21,1.76-6.45.59-4.25,2.34-7.47,1.76-4.69.44-6.45,1.03-4.54.73-1.32.44-4.83,1.76-6.59,3.52-17.72.88-5.86.44-3.81-10.11,1.03-5.13-.15-9.81.73-6.88-.73h-2.93l-3.66-2.49-.73-1.32-2.05-6.45-.29-3.66,1.9.44,1.61,2.93,2.64,2.05,3.08,1.03,10.11,1.76,1.61-1.03,3.66,1.03,9.81-.15,1.9.44,5.27-.73.29-.44-1.03-2.05h1.17l-.88-2.93,2.78-.15,6.59,3.66,1.17,1.61,11.72.73,1.76.44,7.32-1.46h7.47l1.03-.15,1.03-5.71,1.17-1.46-.44-1.32,1.03-1.17-.15-.88Zm-98.73,159.96l-6.74.73-12.89,3.96-8.2,5.86-3.37,3.96-1.76,4.1,3.96,4.69,1.46-.59,3.22,1.17,7.76-.73,8.64-2.78,7.03-4.54,6.3-6.01,6.01-8.64-.59-.15-10.84-1.03Zm73.68-144.43l-1.32.88,1.32,1.03,1.61,1.76-.29,1.32,1.9,2.34-.59,3.96,1.61,1.76-1.76,9.96-.59.88-.44,2.49-1.17.73.73,3.96-2.05,1.03v7.03l-1.76,3.52-2.2,4.98-1.03,4.83-1.61,5.13-1.76,3.52-2.34,6.3-1.46,3.08-1.17,4.1-2.05,2.49.29,2.78-1.32,1.17.15,1.61-.59.73-2.34,7.62-3.22,6.15.29,1.03-2.2,5.57-1.46.44-3.22,7.03-1.17,4.39-5.57,8.06-2.78,5.27-3.81,6.45-6.45,7.76,12.3,4.69,4.25-8.2,2.78-3.08,1.9-5.71,1.03-.44.88-2.05,1.32-1.32,2.49-6.45,2.64-4.25.44-2.05,1.03-.73.88-3.37,5.57-10.69,1.03-4.1,1.46-3.66.88-1.17.15-1.46,2.05-2.78,2.34-7.18,5.27-12.74,2.64-5.42.88-3.52,2.93-6.74,1.32-6.3,1.61-1.76-.29-1.32,1.61-3.81,3.81-12.74,4.39-17.43,1.32-7.47-3.52-.59-15.53.88-.73.29-1.32-.44Z"/>
  <path class="cls-1" d="m908.2,174.98h4.39l6.88,1.76,6.59,4.54,5.42,4.83,3.66,6.45,2.05,8.79-1.03,8.5-2.2,8.06-.88.88-.15,2.2-2.49,2.64-.88,3.81-1.32,1.46-1.03,2.64-.59.88,4.54,6.74,6.45,1.32,2.2-.44,1.76-1.46h.59v3.52l-.29,1.9-1.46,1.61-4.25,2.49-2.34.44-3.52-1.32-4.25-6.74v-.59l-2.34-4.54-.73,1.9-.88.29-8.06,6.01-4.54,1.76-3.08,2.2-6.74,2.64-3.66.44-.44.73-8.35.73-2.93-1.03-4.1-3.52-1.9-3.08.29-.88-1.17-3.96.29-4.25.59-.59-.59-1.46,2.2-6.74,4.1-4.83,1.17-2.2,1.76-.29,1.32-1.76,1.32.15,1.17-1.61,2.93-.73h1.46l.59-1.17,7.18-.73,4.83,1.03,2.93.15,1.32,1.32,1.9.73.73,1.46,1.46.15,2.93,3.81,1.03.59,2.05-3.52,2.64-6.01,1.32-.88,2.93-9.23-.73-1.61,1.46-2.34-1.17-2.49.73-2.34-.88-3.37-1.03-1.46.29-1.03-3.52-3.08-.44-1.03-5.27-1.32-4.98.29-3.66,1.03-4.98,1.32-7.76,4.54-6.01,6.45-1.46,1.76-1.03,2.49.29,1.9,1.17,2.93,2.34,1.46-.44,1.17h-.88l-4.39-2.34-.59-1.32-2.93-2.78-1.32-2.78-2.34-2.34-2.05-3.37.29-2.2,3.22-3.52,3.37-3.08,2.78-.73,1.03-2.49,1.32.29,1.76-1.76,11.72-4.1,5.27-.73Zm.44,44.82l-3.37.15-7.32,2.34-2.05.59-7.03,6.3-1.76,1.61-2.78,5.71-1.17,1.32-.44,4.98.59,1.03-.15,1.03,1.03,1.61,3.22,1.03,4.39-.44,4.39-1.46.59-.88,2.34-.59,11.87-9.81,4.25-4.98,2.2-3.22-3.96-4.98-1.76.29-3.08-1.61Z"/>
  <path class="cls-1" d="m1110.06,77.71l5.71,1.46,4.83,3.22,3.66.73,3.52-.29.73.88,1.9.88-5.13.59-1.61,7.76-1.9,6.15-2.93,5.13.59.59-1.46,2.64-.15,1.32-3.22,10.11-1.46,1.32-.59,3.22-1.17.88-.44,5.13-1.61,1.76-2.34,6.3v1.61l-1.32.88-1.61,4.1.15,1.03-1.03.15-.44-2.93,1.61-9.08v-.59l.44-6.59,2.49-13.33,1.03-11.13v-3.37l1.03-8.35v-2.64l-16.55,2.05-4.25.29-6.59.29-4.69,1.76-6.15,1.17-3.22-.29-3.22,1.46-1.76,10.25-1.03,3.66-2.34,15.23-.59,8.64-1.46,8.79-2.05,7.18-.15,5.86-1.61,6.3-.73,2.78.73,2.34-1.32,5.86-1.76,11.13-.59.29.15,4.54-1.17,1.32,1.03,2.05-1.61,1.9.44,2.93-2.2,7.47v5.13l-2.05,10.4-.15,2.34-1.17,3.08v3.66l-1.17,11.28-1.03,2.2.29,1.9-1.17,3.22-1.03,2.64-.29,5.86.44.88,7.91-1.17,5.27-.88.44-1.17,8.79-.15,4.54,1.03,4.25,3.22,2.05,4.39-1.17,2.64-3.81,2.78-.88-.59-1.32,1.32-2.93-.15-5.13,1.76,1.32-2.49,4.98-6.01,1.03-1.61-7.62.15-.44-.59-3.66,1.76-1.32-.73-7.18,1.46-1.17,1.32-5.86.44-1.17,7.76-.88,1.17.59,1.17-1.17,2.64.59,2.05-2.78,6.3v1.17l-2.78,1.03,1.03-3.37,1.46-11.57-.44-1.17,1.17-4.83-1.76-.15-7.18,2.78-7.62,2.49-1.32,1.61-3.81.59-1.61,2.05-1.46-.15-.44,1.17-4.83,2.64-4.1,3.37-1.46.15-1.17,3.66.44,2.64,2.05,1.76-1.32.59-2.2-1.03-4.39-4.39v-2.05l-1.46-1.46-.15-2.64-1.32-3.22.15-2.2,1.03-.44v-.73l9.67-4.25,2.64-1.03,4.54-1.9,6.59-.88.29-10.99.88-6.45-.44-1.9,1.17-4.39-.44-1.9.88-2.78-.73-.73,2.34-20.21.29-9.52,1.61-15.67-.44-6.15-.15-1.9,1.76-10.25-.15-5.86,1.32-10.4.15-2.49,1.46-14.21,1.03-17.87-.15-7.76.15-9.67,1.03-2.93h-1.61l-.59-.29-1.9.59-11.43,1.17-12.89,2.05-6.3.59-3.22.73-1.17-.88-.73,1.61-1.61.29-3.52,6.15-.73.73-1.61,6.15-1.03,1.03-.15,3.37-1.61.88.59,2.2-1.46,3.81-.88,2.34-.44,2.64-2.64,8.06-1.03.44-1.17,6.3-1.76,2.93-1.32.73.73-7.47.15-4.98.29-9.08,1.76-14.36.59-16.85-.44-6.59-1.46-1.61,1.32-.73,1.03-4.1,1.17-.15.88.88,3.37.88,4.98,2.64,2.93,3.08,15.82-.73,5.13-.88,14.94-.88,10.69-.44,5.42-.73,1.03.59,2.05-.59,7.18-.73,7.91-1.46,3.37.29,4.98-1.32h.59l1.32-3.81-.73-1.46.15-2.49,1.32-2.2,1.9-.44,3.08,1.17-1.76,7.91-.29,1.03.59.88h2.05l.73-1.32,7.76-.88.44.73,13.18-.88.73-.44,4.83-.29,5.27-1.03,3.96.44,2.49.44,2.34-.88.15-6.15Zm-63.87,16.99l-.59,1.03h-4.39l-1.17,1.32-.44,2.49,4.39,1.9-.29,1.9.44.44.73-.15.59,2.05-.59,5.27,1.03,3.66-2.49,4.1-.44,9.38-1.03,5.71-1.46,5.86,1.9.29-1.9,3.52,1.76,4.98-1.76,3.96-.15,3.08v3.08l-1.76,9.52.29,1.03-.73,1.03-.15,6.74-2.2,3.08-2.49,13.48-3.08,15.09.88,3.08-1.32,6.01-1.17.29-.73,7.03-.15,2.49-.73.73-1.32,6.3-1.46,2.64-3.37,16.26-.59,4.39.59,1.03-.73,1.17,2.49.15,1.32-.59,4.25-1.46,5.42-1.32.88.29,1.76-12.6,1.17-7.18.29-1.76,2.64-15.97-.44-1.46,1.9-10.69-.44-1.61,1.32-3.22.44-7.18,1.76-8.06.59-1.32.44-7.03,1.46-9.52-.15-.44.88-1.61.44-6.88,1.17-.88-.29-1.9,2.05-8.35,1.03-5.71,1.03-7.18,1.9-10.25,1.76-8.2-.29-2.93.88-1.76.29-9.38,1.61-.59-1.03-2.49,2.05-7.76-.59.15h-1.17l-4.39.88-1.61-.15-6.74.73Z"/>
  <path class="cls-1" d="m1157.67,181.42l3.96.44,9.08,6.15.73,1.46,3.66,4.1-.73,6.01-3.66,5.42-2.64,2.05-10.11,7.62-.88.29-1.17-.29-.88,1.03-11.13,4.25-5.27.73-.15.88-3.22-.59-3.66.88-1.17,10.69-.44.29,3.66,8.35,6.15,3.66,4.39.29,4.1-.44,6.88-1.9,8.2-4.83,1.03-.73,7.18-6.01-3.08,6.59-6.15,6.15-8.94,4.25-8.2,2.05-2.64-.88-2.64.59-1.46-1.17-1.32.15-6.88-3.81-6.15-6.3-1.9-3.66-1.76-5.42-.29-12.89-5.27-6.3,1.76-.59,4.1,2.93,1.46-2.64,5.27-10.55,6.59-7.32,6.15-4.98,9.67-5.13,4.25-.73,3.52-.15Zm5.27,6.01l-4.83,1.32-6.74,3.66-5.13,4.69-7.18,7.91-6.15,12.45.29.73.73.59,7.18-1.76,10.25-5.13,10.69-8.94,4.25-6.45,1.17-3.66-.59-4.1-3.96-1.32Z"/>
  <path class="cls-1" d="m1372.41,78.44l3.37,1.17,1.32,2.2,2.2-.73,4.25,8.5-.88,6.15-3.37,5.27-2.78,1.03-2.34,1.9-1.46-.44-2.49,1.17-.88-.88-1.76.29-4.1-4.69-.44-4.54,1.03-1.03,2.78,1.17,2.2-.29,2.78-3.22-.15-2.78-1.32-1.03v-1.46l-3.37-.15-6.15,2.78-14.21,17.14-2.05,3.52-7.18,9.38-5.86,7.76-2.93,3.52-1.17,2.64-1.61,1.03-2.2,5.27-4.39,3.81-1.76,3.96-1.03.73-1.32,4.1-4.98,5.27.15.88-3.08,3.81,7.03,13.18,3.52,7.03,3.81,4.25,1.17,3.22,2.34,3.08v1.46l3.52,5.27,1.46,1.9.73,2.93.88.59,9.38,16.55v1.76l3.22,3.22,1.76,4.54,3.22,5.42,6.3,11.87,10.99-4.39,4.39-1.03,1.61-1.03,5.71-.88h4.69l2.05,1.61,2.78,3.66-.59,3.22-3.52,3.08-6.59,2.64-5.42-.59-.15-.29,2.49-1.61.15-1.03,3.08-2.34,1.17-3.08-10.84,2.93-9.08,3.81,8.5,15.67v2.64l-1.9.15-.29-1.32-9.67-15.38-9.96,6.3-4.25,1.76-1.03,2.05-1.61.29-1.61,2.64-6.88,4.83-3.81,7.76.15,1.32,1.76,1.17-1.03,3.22-4.54-2.34-1.17.73-3.96-3.08-2.78-3.81,1.32-2.64,1.03-.44v-2.2l1.32-.59,8.5-7.03-1.61-4.25-1.03-.73-11.57-19.34-2.64-2.93-2.05-4.98-5.42-7.18-4.69-8.06-1.17-1.76-3.37-4.69-1.46-2.05-2.2-3.81-1.76-3.96-2.2-2.49-4.69,2.49-1.9,5.42-1.61.73-3.81,7.18-1.61.44-.44,2.05-1.46.73-.15,1.32-5.86,7.91-3.52,3.52-6.01,8.79-2.34,2.05-.44,1.76-2.34,2.93-1.46.29-6.59,8.64-3.08,2.93-2.05,2.05-2.93,2.78-6.45,4.98-8.94,4.54-5.13,3.08-7.18,1.32-2.34.15-5.57-.88-6.15-3.08-1.61-2.05-1.61-4.83.44-6.59,1.17-1.9,1.17-3.81,6.3-6.15,7.62-3.37,6.59-.73,4.54,2.34,1.46-.44,3.37,4.1-1.61.73-1.03,5.13-2.49.29-.88,1.32-2.2,1.03-2.2-.44-2.49,1.17-3.96-5.86.44-2.34-2.05.15-3.52,3.22-3.08,5.57-.29,3.52,1.46,5.86,3.81,1.76,5.71-1.17.59-.88,6.15-2.78,5.13-4.25h1.46l3.52-3.37.88.15.73-1.46,7.32-8.06.73.15,7.03-8.5,8.35-10.99,7.91-10.25,2.64-1.9,4.25-7.03,2.2-2.49.29-1.46,3.81-4.98v-.73l6.15-8.5.15-6.15-2.78-5.57-.59-.73-1.17-2.34-7.76-12.16-6.3-9.81-.44-2.93-3.22-3.66-5.71-8.35-4.39-6.3-2.34-6.3-6.01-8.35-7.62-10.69-3.08-.44-11.72,5.71-7.18,4.98-1.17,3.37.15,2.34,5.42,7.62-3.08.29-4.98-3.08-5.86-6.88h-1.61l-2.2-4.54,1.17-2.2v-1.17l7.62-4.69,9.23-3.08,15.67-7.18,1.76.59,10.11-5.13,1.61.29,6.15-2.2,8.79-2.78,1.46,1.76-1.46.88-8.06,4.39v2.93l2.78.29.29,3.66,1.76,1.17,1.9,5.27,2.34,3.66,3.22,4.39,2.34,4.25,5.57,7.32.44,1.32,6.45,8.06.73,3.22,1.17,1.32v1.32l2.05,2.2-.44,1.32,1.9,3.96,4.69,6.59,5.13,6.88,10.11-8.94-3.66-6.3-1.03-.88v-2.2l-2.2-1.46.29-1.76-1.46-2.78-8.2-14.65-1.17-1.32-2.49-5.27v-.88l-1.32-1.76-4.25-8.2-.15-.88-10.11-19.63-.44-.59,1.9-3.22,2.05,1.17,13.92,24.9.88,1.17-.88.88,2.2,3.81v1.46l4.25,5.71,5.13,9.52,8.79,16.11,1.32,1.32,1.46-.73,10.11-13.92.29-1.9,1.61-.88,3.22-5.71,1.32-2.64,6.15-6.3,4.39-7.18,5.86-7.76,8.5-9.96,2.49-3.52h1.03l6.15-5.42,8.5-5.27,1.32.44,1.46-1.46h5.13l1.46-.73Zm-68.26,88.77l-5.86,5.86-3.08,3.81.59,2.78,1.17.88,2.93,5.57,2.2,4.1,1.76.73,3.08,6.15,1.03,3.37,2.78,2.93,3.37,4.39-.29,1.32,2.2,1.61-.59,4.69,2.78,2.05,7.03,13.04-.15,2.64,2.34,2.2,3.08,7.76.88,5.57,3.96,2.64,3.08,6.45,1.32-1.9,1.03.59,7.91-5.13,1.17.15.88-1.17h.88l-.29-2.05-5.13-7.76-4.39-7.47-1.03-.73-2.78-5.27.15-1.17-6.3-10.11-1.76-1.9.15-1.32-8.35-14.21-.29-1.9-3.08-2.64.15-2.2-6.15-9.23-5.57-7.76-.29-3.96-2.49-3.37Z"/>
</svg>